<?xml version="1.0" encoding="UTF-8"?><svg id="Layer_1" xmlns="http://www.w3.org/2000/svg" viewBox="0 0 1024 801.9"><defs><style>.cls-1{fill:#fff;}.cls-2{fill:#bd3b3c;}.cls-3{fill:#210a10;}</style></defs><path class="cls-2" d="M25.49,265.24c27.85,16.15,52.26,76.3,77.28,104.75,16.24,18.46,50.39,38.97,60.74,53.84,9.75,14.01,15.72,41.63,24.56,58.53,22.31,42.66,60.83,92.16,92.49,128.77-39.33-34.9-74.14-82.16-98.29-128.77-7.66-14.78-15.32-46.29-22.54-56.69-7.58-10.94-49.61-39.14-65.67-58.01-27.91-32.81-41.88-70.59-68.58-102.43Z"/><path class="cls-2" d="M10.03,257.51c-2.43-2.1-3.57,1.51-5.8-5.8l5.8,5.8Z"/><path class="cls-2" d="M284.42,616.93l3.86,3.86c-.47-.52-1.71-1.41-3.86-3.86Z"/><path class="cls-1" d="M.37,236.26c7.27-1.75,2.45,8.42,3.86,13.53-6.25,1.81-3.67-7.88-3.86-13.53Z"/><path class="cls-1" d="M4.23,218.86c-.84,4.42,2.51,8.99-3.86,7.73.28-4.82-1.98-8.95,3.86-7.73Z"/><path class="cls-1" d="M669.02,755.11s79.01-83.35,89.82-95.65c40.68-46.3,91.57-107.33,116.61-163.58,9.99-22.44,16-59.27,24.56-75.92,2.26-4.4,19.96-20.14,24.83-27.35,31.47-46.56,45.3-84.07,85.25-123.44,36.84-36.31-6.6-81.89-48.05-55.77-9.91,6.24-56.4,68.8-44.77,75.06,5.21,2.81,32.15-88.93,81.62-73.9,8.29,2.52,17.41,12.93,17.9,21.71.62,11.05-5.1,16.1-12.59,23.17-5.84-4.71,3.65-17.49-6.77-22.27-5.96-2.73-39.03,6.36-5.77,11.63-29.66,48.35-48.39,104.31-87.92,145.91l82.18-142.02c-.12-3.03,1.42-5.47-2.9-4.81-10.03,1.52-61.94,100.14-75.42,112.04-7.64-9.53-.64-29.01-.94-38.63-.06-1.93.09-3.87,0-5.8-.74-15.49-4.84-6.48-7.73-15.46-3.73-11.58.11-21.63-2.43-31.38-90.35-346.03-638.79-374.12-741.05,11.58-3.83,14.45,3.37,34.4-19.73,11.03-25.7-26-43.92-80.98-79.9-97.88-27.37-12.86-46.38-1.87-51.58,25.5-.84,4.42,2.51,8.99-3.86,7.73-.18,3.16-.11,6.5,0,9.66,7.27-1.75,2.45,8.42,3.86,13.53.17.6-.18,1.34,0,1.93l5.8,5.8c6.68,5.77,10.07,4.6,15.46,7.73,27.85,16.15,52.26,76.3,77.28,104.75,16.24,18.46,50.39,38.97,60.74,53.84,9.75,14.01,15.72,41.63,24.56,58.53,22.31,42.66,60.83,92.16,92.49,128.77,1.49,1.72,2.37,4.1,3.86,5.8l3.86,3.86c42.82,47.82,93.95,86.99,139.18,132.34,0,0,119.05,108.38,241.55,1.97M164.62,332.87c-1.85,96.97,48.2,175.41,110.24,244.44,18.11,20.15,94.28,100.03,112.87,111.2,1.81,1.09,5.38,3.6,6.83.9-37.89-41.01-82.7-78.5-118.84-120.77-3.11-3.63-26.41-29.65-19.35-28.97l193.23,191.32c10.21,8.83,19.86,15.08,31.93,21.21.28.14-1.47,5.85,3.85,3.85,1.84-5.54-3.47-3.35-3.85-3.85-3.64-4.83-17.08-17.16-17.37-18.39-1.85-7.87,26.98,13.69,30.84,15.55,22.79,11.03,47.6,21.36,73.48,14.45l-3.84,3.82c64.78-10.8,99.84-69.5,149.94-104.32.72-.5-.39-14.82,10.43-5.79,8.12,6.79-84.32,85.22-92.97,91.55-6.64,4.86-43.19,24.92-44.2,27.31-2.91,6.85,22.34-6.41,23.77-7.16,92.14-48.75,261.39-254.96,277.66-359.05,2.41-15.4,3.32-22.75,3.86-38.65.04-1.29-.03-2.58,0-3.86,9.37-31.58,2.05-73.17-9.66-104.35-.14-.61.14-1.32,0-1.93-25.77-110.04-148.55-209.17-254.67-237.12C415.91-31.82,169.12,96.75,164.62,332.87ZM10.03,220.8c-4.48,44.65,14.79,2.02,36.69,20.31,10.05,8.39,36.31,61.47,49.47,78.07,3.89,4.9,48.59,55.42,54.89,48.47,3.14-3.47.22-34.34-1.92-38.64,6.07,1.52,4.36-5.65,2.9-7.73-6.42-9.15-23.62-23.15-32.63-35-15.33-20.16-49.68-83.13-72.57-87.81-19.23-3.93-34.67.86-36.82,22.33ZM42.24,246.57c-1.49-1.35-7.78-5.59-7.07.27,35.66,52.45,61.9,117.34,119.77,149.79l-52.93-56.23c-23.23-18.66-41.8-77.55-59.77-93.83Z"/><ellipse class="cls-1" cx="548.32" cy="411.56" rx="290.83" ry="277.66" transform="translate(110.75 939.35) rotate(-87.23)"/><path class="cls-1" d="M1016.79,236.26c.62,11.05-5.1,16.1-12.59,23.17-5.84-4.71,3.65-17.49-6.77-22.27-5.96-2.73-39.03,6.36-5.77,11.63-29.66,48.35-48.39,104.31-87.92,145.91l82.18-142.02c-.12-3.03,1.42-5.47-2.9-4.81-10.03,1.52-61.94,100.14-75.42,112.04-7.64-9.53-.64-29.01-.94-38.63,8.57-11.03,60.17-76.69,61.81-84.1,2.16-9.78-19.54,15.74-20.58,17.1-.81,1.05-16.41,32.27-14.14,17.77.82-5.23,29.77-43.12,35.75-47.37,3.7-2.63,1.88,5.09,4.77,3.83.47-.21.94-6.41,6.3-8.2,18.78-6.26,24.65,4.33,36.24,15.95ZM972.34,230.48h-3.84v1.88h3.84v-1.88Z"/><path class="cls-1" d="M898.92,300.02c9.47-1.54,9.87,7.84,10.62,7.72,5.68-.88,15.89-29.39,24.15-30.9l-27.04,38.64c-.74-15.49-4.84-6.48-7.73-15.46Z"/><path class="cls-1" d="M255.44,145.43c4.63-.69,54.95-53.45,69.31-63.06C402.74,30.11,509.82,12.93,601.37,30.43c164.08,31.35,282.95,182.67,282.12,348.81,10.69-84.77-28.45-167.74-79.2-232.86l79.18,115c.14.61-.14,1.32,0,1.93,7.63,33.9,10.38,69.64,9.66,104.35-.03,1.29.04,2.58,0,3.86l-3.86,38.65c-16.28,104.09-185.52,310.3-277.66,359.05-1.42.75-26.68,14.02-23.77,7.16,1.02-2.39,37.56-22.45,44.2-27.31,8.64-6.33,101.09-84.77,92.97-91.55-10.81-9.04-9.71,5.29-10.43,5.79-50.1,34.82-85.16,93.52-149.94,104.32l3.84-3.82c-25.88,6.91-50.69-3.42-73.48-14.45-3.86-1.87-32.68-23.42-30.84-15.55.29,1.23,13.73,13.56,17.37,18.39.38.51,5.69-1.68,3.85,3.85-5.32,2-3.57-3.71-3.85-3.85-12.07-6.13-21.72-12.38-31.93-21.21l-193.23-191.32c-7.06-.68,16.24,25.34,19.35,28.97,36.15,42.27,80.96,79.76,118.84,120.77-1.45,2.71-5.02.19-6.83-.9-18.59-11.17-94.76-91.05-112.87-111.2-62.05-69.03-112.09-147.47-110.24-244.44l25.66-98.98c15.95-28.81,30.24-58.75,55.5-80.73.95-1.55.45-5.57,3.84-5.8,1.67,7.71-2.66,4.77-3.84,5.8-18.28,29.63-42.97,59.51-47.35,94.68,13.93-35.71,41.83-68.82,57.02-102.4-11.36,1.7-.27-3.52,0-3.86.51-.65-.63-6.03,5.75-4.85-.73,5.26-5.62,4.5-5.75,4.85-.36,1.03.39,3,0,3.86ZM835.15,297.13v-40.58c0-93.42-142.13-212.61-233.84-214.49,64.67,30.79,167.4,126.16,175.37,199.53,3.16,29.1-4.44,56.42-32.34,70.01l90.81-14.47ZM529.84,419.83c-13.82,17.26,2.07,18.56,5.58,26.73,6.05,14.09,8.59,37.79,5.76,53.19-6.23,33.9-31.55,27.68-50.97,7.04-59.38-63.14-71.42-108.67-158.43-156.54-32.91-18.1-98.17-52.52-113.03,3.86-.48-40.32,15.38-76.63,60.89-75.41,35.25.94,65.14,28.69,97.53,38.7-28.16-33.72-65.57-65.05-67.57-113.1-2.88-69.15,82.53-132.64,137.13-161.26-96.81,14.94-177.35,90.46-202.98,184.43-5.23,19.19-4.47,40.21-8.47,55.37-1.72,6.51-14.45,18.15-17.89,36.14-9.75,50.98,24.09,169.82,72.88,195.51,2.7,1.42.7-6.64,6.28-3.44,28.34,16.24,45.31,29.32,79.04,36.96,40.52,9.17,82.77,5.99,123.32,14.86l-13.47,2.82c11.36,4.4,31.54,18.83,43.47,18.41,20.32-.72-31.04-24.41-24.18-30.91,1.85-1.75,29.58,13.59,42.88-16.05,3.27-7.3,3.23-17.49,5.34-25.23.66-2.43,5.71-.92,5.86-1.25,1.66-3.61-4.44-8.48-4.01-12.52,1.31-12.19,2.09-36.89,4-45.97.48-2.3,6.12-2.71,6.78-5.24,1.49-5.69,1.36-11.83,2.91-17.42,1.5-.63,3.96,1.31,6.01-1.14,4.76-5.68.27-21.6-6.01,1.14-23.98,10.04-20.01,2.21-38.65-9.66-6.2-3.95-7.76-13.87-9.65,5.78l9.65-5.78ZM842.12,320.17c-16.93-12.4-39.13-5.08-57.21-.8-2.97,6.16,14.65,4.03,9.66,9.61-2.49,2.78-53.7,27.68-65.54,35.93-34.91,24.32-79.96,66.34-102.21,102.62-12.85,20.94-22.17,59.57-41.41,72.59-1.1.74-31.48,7.85-8.22,11.29,32.43,4.79,42.27-54.99,62.8-67.79-8.3,16.73-18.1,41.96-30.12,55.85-6.27,7.25-27.97,18.75-27.8,20.46.32,3.2,9.14,1.71,7.66,4.8-.44.92-17.36,9.7-11.56,15.48,3.73,3.72,31.37-18.66,40.43-20.41,85.15-16.45,134.62,5.43,193.01-83.32,18.55-28.2,48.79-117.99,36.67-148.13-1.23-3.07-3.56-6.28-6.15-8.17ZM381.03,336.78l-15.45-3.88c.82,3.33,16.75,12.86,15.45,3.88ZM500.84,435.28c12.16-12.7-97.39-99.89-117.85-94.66l117.85,94.66ZM719.2,342.55c-53.86,10.68-109.13,56.66-125.58,108.19,33.48-46.38,79.55-76.03,125.58-108.19ZM590.71,452.68v1.93l.97-.97-.97-.97ZM230.29,510.64v-3.84h-1.88v3.84h1.88ZM233.19,512.63l.99,2.87.99.9v-1.88l-1.98-1.88ZM239.98,522.25c-.55-.41,1.7-5.72-3.85-3.85-2.01,5.37,3.67,3.52,3.85,3.85.56,1.03-.51,4.12,1.82,6.79,14.88,17.11,15.42,6.28-1.82-6.79ZM446.73,636.24c16.4-14.95-105.95-56.39-112.07-59.87l116.13,144.73,7.53-3.67c-6.19,8.78,3.72,9.27,9.66,4.85-28.59-22.92-27.39-63.36-46.33-92.82-.62-11.33,21.36,10.18,25.08,6.79ZM612.93,738.67c11.92-7.2,32.94-24.38,42.2-36.06,6.62-8.36,56.15-91.3,52.47-95.33-1.25-1.37-30.2,10.95-33.69,15.56-8.54,11.26,5.69,1.01,6.68,8.58,1.73,13.2-54.79,94.22-67.66,107.25-5.96,3.6-20.39,7.42-23.18,15.45,10.99,1.27,16.81-9,23.18-15.45ZM478.27,629.14c-10.73,9.89-25.23,50.47-8.9,58.89,17.66,9.1,142.98,8.74,158.95-2.56,16.66-11.79,11.8-50.43-5.06-62.44-22.85-16.28-123.03-14.13-144.99,6.12ZM470.9,727.08v1.93l.97-.97-.97-.97Z"/><path class="cls-1" d="M10.03,220.8c41.52-53.81,85.54,44.29,108.29,74.32,7.48,9.88,26.7,25.56,30.85,33.89,2.14,4.29,5.06,35.17,1.92,38.64-6.29,6.95-51-43.57-54.89-48.47-13.16-16.6-39.42-69.67-49.47-78.07-21.9-18.29-41.17,24.33-36.69-20.31Z"/><path class="cls-1" d="M42.24,246.57c17.97,16.29,36.54,75.17,59.77,93.83l52.93,56.23c-57.87-32.45-84.11-97.34-119.77-149.79-.71-5.86,5.58-1.62,7.07-.27Z"/><path class="cls-1" d="M568.48,429.49c-1.54,5.6-1.42,11.73-2.91,17.42-.66,2.52-6.29,2.94-6.78,5.24-1.91,9.08-2.69,33.78-4,45.97-.43,4.03,5.67,8.91,4.01,12.52-.15.33-5.2-1.18-5.86,1.25-2.11,7.74-2.06,17.93-5.34,25.23-13.3,29.64-41.04,14.3-42.88,16.05-6.87,6.51,44.49,30.2,24.18,30.91-11.93.42-32.12-14.01-43.47-18.41l13.47-2.82c-40.55-8.87-82.8-5.68-123.32-14.86-33.73-7.64-50.7-20.71-79.04-36.96-5.58-3.2-3.57,4.87-6.28,3.44-48.78-25.68-82.63-144.52-72.88-195.51,3.44-17.99,16.18-29.63,17.89-36.14,4-15.16,3.24-36.18,8.47-55.37,25.63-93.96,106.17-169.49,202.98-184.43-54.61,28.63-140.01,92.11-137.13,161.26,2,48.05,39.41,79.37,67.57,113.1-32.38-10-62.28-37.75-97.53-38.7-45.51-1.22-61.37,35.09-60.89,75.41,14.86-56.38,80.12-21.96,113.03-3.86,87.01,47.87,99.05,93.4,158.43,156.54,19.42,20.64,44.73,26.86,50.97-7.04,2.83-15.41.29-39.1-5.76-53.19-3.51-8.17-19.4-9.47-5.58-26.73l-9.65,5.78c1.89-19.65,3.45-9.73,9.65-5.78,18.64,11.87,14.66,19.7,38.65,9.66,6.27-22.74,10.77-6.82,6.01-1.14-2.05,2.45-4.51.51-6.01,1.14ZM270.89,332.9c-9.82-9.53-51.98,9.28-42.49,19.29,3.01,3.18,14.09-14.15,17.02-15.28,9.03-3.47,17.64-.06,25.46-4.01ZM452.53,512.57c-4.95-31.73-156.12-129.51-170.03-115.91-4.34,4.24,17.37,34.63,21.32,39.52,33.91,42.07,96.5,67.35,148.71,76.39ZM497.71,529.26c-10.25-10.24-17.35-26.02-29.69-34.05,6.72,17.03,24.31,45.61,42.06,51.63,30.69,10.41-7.5-12.72-12.36-17.59ZM290.2,508.71v-3.84h-1.88v3.84h1.88Z"/><path class="cls-1" d="M842.12,320.17c2.58,1.89,4.92,5.11,6.15,8.17,12.12,30.14-18.12,119.94-36.67,148.13-58.39,88.75-107.87,66.87-193.01,83.32-9.07,1.75-36.71,24.13-40.43,20.41-5.8-5.78,11.12-14.56,11.56-15.48,1.47-3.09-7.35-1.6-7.66-4.8-.17-1.72,21.52-13.21,27.8-20.46,12.02-13.89,21.82-39.12,30.12-55.85-20.53,12.8-30.37,72.58-62.8,67.79-23.26-3.44,7.12-10.54,8.22-11.29,19.25-13.02,28.57-51.64,41.41-72.59,22.25-36.28,67.31-78.3,102.21-102.62,11.84-8.25,63.05-33.15,65.54-35.93,4.99-5.58-12.62-3.44-9.66-9.61,18.09-4.28,40.29-11.6,57.21.8ZM643.85,508.7c9.5,12.51,86.36-18.55,100.28-28.2,12.53-8.69,64.25-64.97,53.51-78.13-7.34-9-63.29,10.79-70.69,20.37l3.84,2.86c-14.32,1.19-92.94,75.2-86.94,83.1ZM646.74,470.07v1.93l.97-.97-.97-.97ZM645.77,473.95c-5.64-6.68-9.04,12.26-1.96,7.7.33-.21,2.42-7.15,1.96-7.7Z"/><path class="cls-1" d="M835.15,297.13l-90.81,14.47c27.9-13.59,35.5-40.9,32.34-70.01-7.97-73.38-110.7-168.74-175.37-199.53,91.72,1.88,233.84,121.07,233.84,214.49v40.58Z"/><path class="cls-1" d="M478.27,629.14c21.96-20.25,122.13-22.4,144.99-6.12,16.86,12.01,21.72,50.65,5.06,62.44-15.97,11.3-141.3,11.66-158.95,2.56-16.33-8.41-1.83-48.99,8.9-58.89ZM518.24,655.58c2.02,1.38,24.12-1.01,28.99,0-1.43-4.46,3.39-29-1.15-31.05-2.2-.99-27.99.03-29.48,2.36-1.49,2.33.34,27.8,1.64,28.68ZM583.94,626.59c-6.09-.28-26.31-4.98-30.07-.12-1.66,2.14-2.15,29.11,2.05,29.11h28.02v-28.99ZM512.44,626.59c-29.76,1.85-43.69,33.52,0,28.99v-28.99ZM607.13,634.32c-1.98-1.59-15.36-12.01-19.31-7.73-.92.99-.98,26.11-.02,27.07,1.95,1.95,10.94-1.58,13.53-1.94,16.36-2.3,20.83-5.3,5.8-17.39ZM604.75,682.21c.87-.86,6.55-22.49,6.26-23.68-.79-3.2-22.01-1.42-22.97-.78-1.89,1.26-3.12,27.69-2.15,28.75.68.74,18.17-3.62,18.86-4.3ZM512.44,659.45c-1.18-.75-23.64,0-28.02,0-2.82,0-6.57,13.32-4.82,15.45.97,1.18,14.16-7.15,19.08-3.61,1.81,1.31,1.1,14.26,3.27,15.31,19.19,9.21,12.15-26.09,10.48-27.15ZM547.23,659.45c-1.03-1.02-24.66.76-28.99,0,1.62,12.18-6.04,26.39,10.5,29.1,26.08,4.27,20.74-26.85,18.49-29.1ZM583.94,659.45c-1.03-.95-23.78,0-28.02,0-3.37,0-5.72,27.8,0,29.05,1.17.26,22.85-1.64,23.86-2.29,1.14-.73,5.15-25.85,4.16-26.77Z"/><path class="cls-1" d="M446.73,636.24c-3.72,3.39-25.7-18.12-25.08-6.79,18.94,29.47,17.74,69.9,46.33,92.82-5.94,4.42-15.85,3.93-9.66-4.85l-7.53,3.67-116.13-144.73c6.11,3.48,128.46,44.92,112.07,59.87Z"/><path class="cls-1" d="M612.93,738.67c12.87-13.03,69.39-94.05,67.66-107.25-.99-7.57-15.22,2.68-6.68-8.58,3.49-4.61,32.44-16.93,33.69-15.56,3.68,4.03-45.85,86.97-52.47,95.33-9.26,11.68-30.29,28.87-42.2,36.06-6.37,6.45-12.18,16.72-23.18,15.45,2.79-8.02,17.22-11.85,23.18-15.45Z"/><path class="cls-1" d="M239.98,522.25c-.18-.33-5.86,1.51-3.85-3.85,5.55-1.87,3.31,3.44,3.85,3.85,17.24,13.07,16.7,23.91,1.82,6.79-2.33-2.68-1.26-5.76-1.82-6.79Z"/><rect class="cls-1" x="228.41" y="506.8" width="1.88" height="3.84"/><polygon class="cls-1" points="233.19 512.63 235.17 514.52 235.17 516.4 234.18 515.51 233.19 512.63"/><polygon class="cls-1" points="470.9 727.08 471.86 728.04 470.9 729.01 470.9 727.08"/><path class="cls-1" d="M497.71,529.26c4.87,4.86,43.05,28,12.36,17.59-17.75-6.02-35.34-34.6-42.06-51.63,12.34,8.03,19.45,23.81,29.69,34.05Z"/><path class="cls-1" d="M270.89,332.9c-7.83,3.95-16.43.54-25.46,4.01-2.93,1.13-14.01,18.46-17.02,15.28-9.49-10.01,32.67-28.82,42.49-19.29Z"/><rect class="cls-1" x="288.31" y="504.87" width="1.88" height="3.84"/><path class="cls-1" d="M645.77,473.95c.46.55-1.62,7.49-1.96,7.7-7.08,4.55-3.68-14.39,1.96-7.7Z"/><polygon class="cls-1" points="646.74 470.07 647.71 471.04 646.74 472.01 646.74 470.07"/><path class="cls-1" d="M607.13,634.32c15.03,12.09,10.56,15.09-5.8,17.39l5.8-17.39Z"/><path class="cls-2" d="M.37,236.26c7.27-1.75,2.45,8.42,3.86,13.53-6.25,1.81-3.67-7.88-3.86-13.53Z"/><path class="cls-2" d="M4.23,218.86c-.84,4.42,2.51,8.99-3.86,7.73.28-4.82-1.98-8.95,3.86-7.73Z"/><path class="cls-3" d="M669.02,755.11s79.01-83.35,89.82-95.65c40.68-46.3,91.57-107.33,116.61-163.58,9.99-22.44,16-59.27,24.56-75.92,2.26-4.4,19.96-20.14,24.83-27.35,31.47-46.56,45.3-84.07,85.25-123.44,36.84-36.31-6.6-81.89-48.05-55.77-9.91,6.24-56.4,68.8-44.77,75.06,5.21,2.81,32.15-88.93,81.62-73.9,8.29,2.52,17.41,12.93,17.9,21.71.62,11.05-5.1,16.1-12.59,23.17-5.84-4.71,3.65-17.49-6.77-22.27-5.96-2.73-39.03,6.36-5.77,11.63-29.66,48.35-48.39,104.31-87.92,145.91l82.18-142.02c-.12-3.03,1.42-5.47-2.9-4.81-10.03,1.52-61.94,100.14-75.42,112.04-7.64-9.53-.64-29.01-.94-38.63-.06-1.93.09-3.87,0-5.8-.74-15.49-4.84-6.48-7.73-15.46-3.73-11.58.11-21.63-2.43-31.38-90.35-346.03-638.79-374.12-741.05,11.58-3.83,14.45,3.37,34.4-19.73,11.03-25.7-26-43.92-80.98-79.9-97.88-27.37-12.86-46.38-1.87-51.58,25.5-.84,4.42,2.51,8.99-3.86,7.73-.18,3.16-.11,6.5,0,9.66,7.27-1.75,2.45,8.42,3.86,13.53.17.6-.18,1.34,0,1.93l5.8,5.8c6.68,5.77,10.07,4.6,15.46,7.73,27.85,16.15,52.26,76.3,77.28,104.75,16.24,18.46,50.39,38.97,60.74,53.84,9.75,14.01,15.72,41.63,24.56,58.53,22.31,42.66,60.83,92.16,92.49,128.77,1.49,1.72,2.37,4.1,3.86,5.8l3.86,3.86c42.82,47.82,93.95,86.99,139.18,132.34,0,0,119.05,108.38,241.55,1.97M164.62,332.87c-1.85,96.97,48.2,175.41,110.24,244.44,18.11,20.15,94.28,100.03,112.87,111.2,1.81,1.09,5.38,3.6,6.83.9-37.89-41.01-82.7-78.5-118.84-120.77-3.11-3.63-26.41-29.65-19.35-28.97l193.23,191.32c10.21,8.83,19.86,15.08,31.93,21.21.28.14-1.47,5.85,3.85,3.85,1.84-5.54-3.47-3.35-3.85-3.85-3.64-4.83-17.08-17.16-17.37-18.39-1.85-7.87,26.98,13.69,30.84,15.55,22.79,11.03,47.6,21.36,73.48,14.45l-3.84,3.82c64.78-10.8,99.84-69.5,149.94-104.32.72-.5-.39-14.82,10.43-5.79,8.12,6.79-84.32,85.22-92.97,91.55-6.64,4.86-43.19,24.92-44.2,27.31-2.91,6.85,22.34-6.41,23.77-7.16,92.14-48.75,261.39-254.96,277.66-359.05,2.41-15.4,3.32-22.75,3.86-38.65.04-1.29-.03-2.58,0-3.86,9.37-31.58,2.05-73.17-9.66-104.35-.14-.61.14-1.32,0-1.93-25.77-110.04-148.55-209.17-254.67-237.12C415.91-31.82,169.12,96.75,164.62,332.87ZM10.03,220.8c-4.48,44.65,14.79,2.02,36.69,20.31,10.05,8.39,36.31,61.47,49.47,78.07,3.89,4.9,48.59,55.42,54.89,48.47,3.14-3.47.22-34.34-1.92-38.64,6.07,1.52,4.36-5.65,2.9-7.73-6.42-9.15-23.62-23.15-32.63-35-15.33-20.16-49.68-83.13-72.57-87.81-19.23-3.93-34.67.86-36.82,22.33ZM42.24,246.57c-1.49-1.35-7.78-5.59-7.07.27,35.66,52.45,61.9,117.34,119.77,149.79l-52.93-56.23c-23.23-18.66-41.8-77.55-59.77-93.83Z"/><ellipse class="cls-1" cx="548.32" cy="411.56" rx="290.83" ry="277.66" transform="translate(110.75 939.35) rotate(-87.23)"/><path class="cls-2" d="M1016.79,236.26c.62,11.05-5.1,16.1-12.59,23.17-5.84-4.71,3.65-17.49-6.77-22.27-5.96-2.73-39.03,6.36-5.77,11.63-29.66,48.35-48.39,104.31-87.92,145.91l82.18-142.02c-.12-3.03,1.42-5.47-2.9-4.81-10.03,1.52-61.94,100.14-75.42,112.04-7.64-9.53-.64-29.01-.94-38.63,8.57-11.03,60.17-76.69,61.81-84.1,2.16-9.78-19.54,15.74-20.58,17.1-.81,1.05-16.41,32.27-14.14,17.77.82-5.23,29.77-43.12,35.75-47.37,3.7-2.63,1.88,5.09,4.77,3.83.47-.21.94-6.41,6.3-8.2,18.78-6.26,24.65,4.33,36.24,15.95ZM972.34,230.48h-3.84v1.88h3.84v-1.88Z"/><path class="cls-2" d="M898.92,300.02c9.47-1.54,9.87,7.84,10.62,7.72,5.68-.88,15.89-29.39,24.15-30.9l-27.04,38.64c-.74-15.49-4.84-6.48-7.73-15.46Z"/><path class="cls-2" d="M255.44,145.43c4.63-.69,54.95-53.45,69.31-63.06C402.74,30.11,509.82,12.93,601.37,30.43c164.08,31.35,282.95,182.67,282.12,348.81,10.69-84.77-28.45-167.74-79.2-232.86l79.18,115c.14.61-.14,1.32,0,1.93,7.63,33.9,10.38,69.64,9.66,104.35-.03,1.29.04,2.58,0,3.86l-3.86,38.65c-16.28,104.09-185.52,310.3-277.66,359.05-1.42.75-26.68,14.02-23.77,7.16,1.02-2.39,37.56-22.45,44.2-27.31,8.64-6.33,101.09-84.77,92.97-91.55-10.81-9.04-9.71,5.29-10.43,5.79-50.1,34.82-85.16,93.52-149.94,104.32l3.84-3.82c-25.88,6.91-50.69-3.42-73.48-14.45-3.86-1.87-32.68-23.42-30.84-15.55.29,1.23,13.73,13.56,17.37,18.39.38.51,5.69-1.68,3.85,3.85-5.32,2-3.57-3.71-3.85-3.85-12.07-6.13-21.72-12.38-31.93-21.21l-193.23-191.32c-7.06-.68,16.24,25.34,19.35,28.97,36.15,42.27,80.96,79.76,118.84,120.77-1.45,2.71-5.02.19-6.83-.9-18.59-11.17-94.76-91.05-112.87-111.2-62.05-69.03-112.09-147.47-110.24-244.44l25.66-98.98c15.95-28.81,30.24-58.75,55.5-80.73.95-1.55.45-5.57,3.84-5.8,1.67,7.71-2.66,4.77-3.84,5.8-18.28,29.63-42.97,59.51-47.35,94.68,13.93-35.71,41.83-68.82,57.02-102.4-11.36,1.7-.27-3.52,0-3.86.51-.65-.63-6.03,5.75-4.85-.73,5.26-5.62,4.5-5.75,4.85-.36,1.03.39,3,0,3.86ZM835.15,297.13v-40.58c0-93.42-142.13-212.61-233.84-214.49,64.67,30.79,167.4,126.16,175.37,199.53,3.16,29.1-4.44,56.42-32.34,70.01l90.81-14.47ZM529.84,419.83c-13.82,17.26,2.07,18.56,5.58,26.73,6.05,14.09,8.59,37.79,5.76,53.19-6.23,33.9-31.55,27.68-50.97,7.04-59.38-63.14-71.42-108.67-158.43-156.54-32.91-18.1-98.17-52.52-113.03,3.86-.48-40.32,15.38-76.63,60.89-75.41,35.25.94,65.14,28.69,97.53,38.7-28.16-33.72-65.57-65.05-67.57-113.1-2.88-69.15,82.53-132.64,137.13-161.26-96.81,14.94-177.35,90.46-202.98,184.43-5.23,19.19-4.47,40.21-8.47,55.37-1.72,6.51-14.45,18.15-17.89,36.14-9.75,50.98,24.09,169.82,72.88,195.51,2.7,1.42.7-6.64,6.28-3.44,28.34,16.24,45.31,29.32,79.04,36.96,40.52,9.17,82.77,5.99,123.32,14.86l-13.47,2.82c11.36,4.4,31.54,18.83,43.47,18.41,20.32-.72-31.04-24.41-24.18-30.91,1.85-1.75,29.58,13.59,42.88-16.05,3.27-7.3,3.23-17.49,5.34-25.23.66-2.43,5.71-.92,5.86-1.25,1.66-3.61-4.44-8.48-4.01-12.52,1.31-12.19,2.09-36.89,4-45.97.48-2.3,6.12-2.71,6.78-5.24,1.49-5.69,1.36-11.83,2.91-17.42,1.5-.63,3.96,1.31,6.01-1.14,4.76-5.68.27-21.6-6.01,1.14-23.98,10.04-20.01,2.21-38.65-9.66-6.2-3.95-7.76-13.87-9.65,5.78l9.65-5.78ZM842.12,320.17c-16.93-12.4-39.13-5.08-57.21-.8-2.97,6.16,14.65,4.03,9.66,9.61-2.49,2.78-53.7,27.68-65.54,35.93-34.91,24.32-79.96,66.34-102.21,102.62-12.85,20.94-22.17,59.57-41.41,72.59-1.1.74-31.48,7.85-8.22,11.29,32.43,4.79,42.27-54.99,62.8-67.79-8.3,16.73-18.1,41.96-30.12,55.85-6.27,7.25-27.97,18.75-27.8,20.46.32,3.2,9.14,1.71,7.66,4.8-.44.92-17.36,9.7-11.56,15.48,3.73,3.72,31.37-18.66,40.43-20.41,85.15-16.45,134.62,5.43,193.01-83.32,18.55-28.2,48.79-117.99,36.67-148.13-1.23-3.07-3.56-6.28-6.15-8.17ZM381.03,336.78l-15.45-3.88c.82,3.33,16.75,12.86,15.45,3.88ZM500.84,435.28c12.16-12.7-97.39-99.89-117.85-94.66l117.85,94.66ZM719.2,342.55c-53.86,10.68-109.13,56.66-125.58,108.19,33.48-46.38,79.55-76.03,125.58-108.19ZM590.71,452.68v1.93l.97-.97-.97-.97ZM230.29,510.64v-3.84h-1.88v3.84h1.88ZM233.19,512.63l.99,2.87.99.9v-1.88l-1.98-1.88ZM239.98,522.25c-.55-.41,1.7-5.72-3.85-3.85-2.01,5.37,3.67,3.52,3.85,3.85.56,1.03-.51,4.12,1.82,6.79,14.88,17.11,15.42,6.28-1.82-6.79ZM446.73,636.24c16.4-14.95-105.95-56.39-112.07-59.87l116.13,144.73,7.53-3.67c-6.19,8.78,3.72,9.27,9.66,4.85-28.59-22.92-27.39-63.36-46.33-92.82-.62-11.33,21.36,10.18,25.08,6.79ZM612.93,738.67c11.92-7.2,32.94-24.38,42.2-36.06,6.62-8.36,56.15-91.3,52.47-95.33-1.25-1.37-30.2,10.95-33.69,15.56-8.54,11.26,5.69,1.01,6.68,8.58,1.73,13.2-54.79,94.22-67.66,107.25-5.96,3.6-20.39,7.42-23.18,15.45,10.99,1.27,16.81-9,23.18-15.45ZM478.27,629.14c-10.73,9.89-25.23,50.47-8.9,58.89,17.66,9.1,142.98,8.74,158.95-2.56,16.66-11.79,11.8-50.43-5.06-62.44-22.85-16.28-123.03-14.13-144.99,6.12ZM470.9,727.08v1.93l.97-.97-.97-.97Z"/><path class="cls-2" d="M10.03,220.8c41.52-53.81,85.54,44.29,108.29,74.32,7.48,9.88,26.7,25.56,30.85,33.89,2.14,4.29,5.06,35.17,1.92,38.64-6.29,6.95-51-43.57-54.89-48.47-13.16-16.6-39.42-69.67-49.47-78.07-21.9-18.29-41.17,24.33-36.69-20.31Z"/><path class="cls-2" d="M42.24,246.57c17.97,16.29,36.54,75.17,59.77,93.83l52.93,56.23c-57.87-32.45-84.11-97.34-119.77-149.79-.71-5.86,5.58-1.62,7.07-.27Z"/><path class="cls-3" d="M568.48,429.49c-1.54,5.6-1.42,11.73-2.91,17.42-.66,2.52-6.29,2.94-6.78,5.24-1.91,9.08-2.69,33.78-4,45.97-.43,4.03,5.67,8.91,4.01,12.52-.15.33-5.2-1.18-5.86,1.25-2.11,7.74-2.06,17.93-5.34,25.23-13.3,29.64-41.04,14.3-42.88,16.05-6.87,6.51,44.49,30.2,24.18,30.91-11.93.42-32.12-14.01-43.47-18.41l13.47-2.82c-40.55-8.87-82.8-5.68-123.32-14.86-33.73-7.64-50.7-20.71-79.04-36.96-5.58-3.2-3.57,4.87-6.28,3.44-48.78-25.68-82.63-144.52-72.88-195.51,3.44-17.99,16.18-29.63,17.89-36.14,4-15.16,3.24-36.18,8.47-55.37,25.63-93.96,106.17-169.49,202.98-184.43-54.61,28.63-140.01,92.11-137.13,161.26,2,48.05,39.41,79.37,67.57,113.1-32.38-10-62.28-37.75-97.53-38.7-45.51-1.22-61.37,35.09-60.89,75.41,14.86-56.38,80.12-21.96,113.03-3.86,87.01,47.87,99.05,93.4,158.43,156.54,19.42,20.64,44.73,26.86,50.97-7.04,2.83-15.41.29-39.1-5.76-53.19-3.51-8.17-19.4-9.47-5.58-26.73l-9.65,5.78c1.89-19.65,3.45-9.73,9.65-5.78,18.64,11.87,14.66,19.7,38.65,9.66,6.27-22.74,10.77-6.82,6.01-1.14-2.05,2.45-4.51.51-6.01,1.14ZM270.89,332.9c-9.82-9.53-51.98,9.28-42.49,19.29,3.01,3.18,14.09-14.15,17.02-15.28,9.03-3.47,17.64-.06,25.46-4.01ZM452.53,512.57c-4.95-31.73-156.12-129.51-170.03-115.91-4.34,4.24,17.37,34.63,21.32,39.52,33.91,42.07,96.5,67.35,148.71,76.39ZM497.71,529.26c-10.25-10.24-17.35-26.02-29.69-34.05,6.72,17.03,24.31,45.61,42.06,51.63,30.69,10.41-7.5-12.72-12.36-17.59ZM290.2,508.71v-3.84h-1.88v3.84h1.88Z"/><path class="cls-3" d="M842.12,320.17c2.58,1.89,4.92,5.11,6.15,8.17,12.12,30.14-18.12,119.94-36.67,148.13-58.39,88.75-107.87,66.87-193.01,83.32-9.07,1.75-36.71,24.13-40.43,20.41-5.8-5.78,11.12-14.56,11.56-15.48,1.47-3.09-7.35-1.6-7.66-4.8-.17-1.72,21.52-13.21,27.8-20.46,12.02-13.89,21.82-39.12,30.12-55.85-20.53,12.8-30.37,72.58-62.8,67.79-23.26-3.44,7.12-10.54,8.22-11.29,19.25-13.02,28.57-51.64,41.41-72.59,22.25-36.28,67.31-78.3,102.21-102.62,11.84-8.25,63.05-33.15,65.54-35.93,4.99-5.58-12.62-3.44-9.66-9.61,18.09-4.28,40.29-11.6,57.21.8ZM643.85,508.7c9.5,12.51,86.36-18.55,100.28-28.2,12.53-8.69,64.25-64.97,53.51-78.13-7.34-9-63.29,10.79-70.69,20.37l3.84,2.86c-14.32,1.19-92.94,75.2-86.94,83.1ZM646.74,470.07v1.93l.97-.97-.97-.97ZM645.77,473.95c-5.64-6.68-9.04,12.26-1.96,7.7.33-.21,2.42-7.15,1.96-7.7Z"/><path class="cls-3" d="M835.15,297.13l-90.81,14.47c27.9-13.59,35.5-40.9,32.34-70.01-7.97-73.38-110.7-168.74-175.37-199.53,91.72,1.88,233.84,121.07,233.84,214.49v40.58Z"/><path class="cls-3" d="M478.27,629.14c21.96-20.25,122.13-22.4,144.99-6.12,16.86,12.01,21.72,50.65,5.06,62.44-15.97,11.3-141.3,11.66-158.95,2.56-16.33-8.41-1.83-48.99,8.9-58.89ZM518.24,655.58c2.02,1.38,24.12-1.01,28.99,0-1.43-4.46,3.39-29-1.15-31.05-2.2-.99-27.99.03-29.48,2.36-1.49,2.33.34,27.8,1.64,28.68ZM583.94,626.59c-6.09-.28-26.31-4.98-30.07-.12-1.66,2.14-2.15,29.11,2.05,29.11h28.02v-28.99ZM512.44,626.59c-29.76,1.85-43.69,33.52,0,28.99v-28.99ZM607.13,634.32c-1.98-1.59-15.36-12.01-19.31-7.73-.92.99-.98,26.11-.02,27.07,1.95,1.95,10.94-1.58,13.53-1.94,16.36-2.3,20.83-5.3,5.8-17.39ZM604.75,682.21c.87-.86,6.55-22.49,6.26-23.68-.79-3.2-22.01-1.42-22.97-.78-1.89,1.26-3.12,27.69-2.15,28.75.68.74,18.17-3.62,18.86-4.3ZM512.44,659.45c-1.18-.75-23.64,0-28.02,0-2.82,0-6.57,13.32-4.82,15.45.97,1.18,14.16-7.15,19.08-3.61,1.81,1.31,1.1,14.26,3.27,15.31,19.19,9.21,12.15-26.09,10.48-27.15ZM547.23,659.45c-1.03-1.02-24.66.76-28.99,0,1.62,12.18-6.04,26.39,10.5,29.1,26.08,4.27,20.74-26.85,18.49-29.1ZM583.94,659.45c-1.03-.95-23.78,0-28.02,0-3.37,0-5.72,27.8,0,29.05,1.17.26,22.85-1.64,23.86-2.29,1.14-.73,5.15-25.85,4.16-26.77Z"/><path class="cls-3" d="M446.73,636.24c-3.72,3.39-25.7-18.12-25.08-6.79,18.94,29.47,17.74,69.9,46.33,92.82-5.94,4.42-15.85,3.93-9.66-4.85l-7.53,3.67-116.13-144.73c6.11,3.48,128.46,44.92,112.07,59.87Z"/><path class="cls-3" d="M612.93,738.67c12.87-13.03,69.39-94.05,67.66-107.25-.99-7.57-15.22,2.68-6.68-8.58,3.49-4.61,32.44-16.93,33.69-15.56,3.68,4.03-45.85,86.97-52.47,95.33-9.26,11.68-30.29,28.87-42.2,36.06-6.37,6.45-12.18,16.72-23.18,15.45,2.79-8.02,17.22-11.85,23.18-15.45Z"/><path class="cls-3" d="M239.98,522.25c-.18-.33-5.86,1.51-3.85-3.85,5.55-1.87,3.31,3.44,3.85,3.85,17.24,13.07,16.7,23.91,1.82,6.79-2.33-2.68-1.26-5.76-1.82-6.79Z"/><rect class="cls-3" x="228.41" y="506.8" width="1.88" height="3.84"/><polygon class="cls-3" points="233.19 512.63 235.17 514.52 235.17 516.4 234.18 515.51 233.19 512.63"/><polygon class="cls-3" points="470.9 727.08 471.86 728.04 470.9 729.01 470.9 727.08"/><path class="cls-2" d="M497.71,529.26c4.87,4.86,43.05,28,12.36,17.59-17.75-6.02-35.34-34.6-42.06-51.63,12.34,8.03,19.45,23.81,29.69,34.05Z"/><path class="cls-2" d="M270.89,332.9c-7.83,3.95-16.43.54-25.46,4.01-2.93,1.13-14.01,18.46-17.02,15.28-9.49-10.01,32.67-28.82,42.49-19.29Z"/><rect class="cls-2" x="288.31" y="504.87" width="1.88" height="3.84"/><path class="cls-2" d="M645.77,473.95c.46.55-1.62,7.49-1.96,7.7-7.08,4.55-3.68-14.39,1.96-7.7Z"/><polygon class="cls-2" points="646.74 470.07 647.71 471.04 646.74 472.01 646.74 470.07"/><path class="cls-2" d="M607.13,634.32c15.03,12.09,10.56,15.09-5.8,17.39l5.8-17.39Z"/></svg>